<svg id="visual" viewBox="0 0 900 600" width="900" height="600" xmlns="http://www.w3.org/2000/svg" xmlns:xlink="http://www.w3.org/1999/xlink" version="1.1"><rect x="0" y="0" width="900" height="600" fill="#001220"></rect><path d="M0 256L15 245.5C30 235 60 214 90 201.8C120 189.7 150 186.3 180 182C210 177.7 240 172.3 270 179.7C300 187 330 207 360 213.8C390 220.7 420 214.3 450 212.3C480 210.3 510 212.7 540 218.3C570 224 600 233 630 242C660 251 690 260 720 274.8C750 289.7 780 310.3 810 313.5C840 316.7 870 302.3 885 295.2L900 288L900 601L885 601C870 601 840 601 810 601C780 601 750 601 720 601C690 601 660 601 630 601C600 601 570 601 540 601C510 601 480 601 450 601C420 601 390 601 360 601C330 601 300 601 270 601C240 601 210 601 180 601C150 601 120 601 90 601C60 601 30 601 15 601L0 601Z" fill="#fa7268"></path><path d="M0 257L15 252C30 247 60 237 90 233.8C120 230.7 150 234.3 180 249.7C210 265 240 292 270 315.3C300 338.7 330 358.3 360 350.7C390 343 420 308 450 295.5C480 283 510 293 540 286.3C570 279.7 600 256.3 630 245.5C660 234.7 690 236.3 720 240C750 243.7 780 249.3 810 273.5C840 297.7 870 340.3 885 361.7L900 383L900 601L885 601C870 601 840 601 810 601C780 601 750 601 720 601C690 601 660 601 630 601C600 601 570 601 540 601C510 601 480 601 450 601C420 601 390 601 360 601C330 601 300 601 270 601C240 601 210 601 180 601C150 601 120 601 90 601C60 601 30 601 15 601L0 601Z" fill="#f16367"></path><path d="M0 258L15 277.7C30 297.3 60 336.7 90 359.3C120 382 150 388 180 378C210 368 240 342 270 319C300 296 330 276 360 269.3C390 262.7 420 269.3 450 281.7C480 294 510 312 540 329.3C570 346.7 600 363.3 630 370.2C660 377 690 374 720 376.2C750 378.3 780 385.7 810 395C840 404.3 870 415.7 885 421.3L900 427L900 601L885 601C870 601 840 601 810 601C780 601 750 601 720 601C690 601 660 601 630 601C600 601 570 601 540 601C510 601 480 601 450 601C420 601 390 601 360 601C330 601 300 601 270 601C240 601 210 601 180 601C150 601 120 601 90 601C60 601 30 601 15 601L0 601Z" fill="#e85467"></path><path d="M0 362L15 379.7C30 397.3 60 432.7 90 447.2C120 461.7 150 455.3 180 447C210 438.7 240 428.3 270 430.2C300 432 330 446 360 431.8C390 417.7 420 375.3 450 372.7C480 370 510 407 540 412.7C570 418.3 600 392.7 630 383.2C660 373.7 690 380.3 720 386.7C750 393 780 399 810 397.5C840 396 870 387 885 382.5L900 378L900 601L885 601C870 601 840 601 810 601C780 601 750 601 720 601C690 601 660 601 630 601C600 601 570 601 540 601C510 601 480 601 450 601C420 601 390 601 360 601C330 601 300 601 270 601C240 601 210 601 180 601C150 601 120 601 90 601C60 601 30 601 15 601L0 601Z" fill="#de4467"></path><path d="M0 460L15 455.2C30 450.3 60 440.7 90 432.2C120 423.7 150 416.3 180 423C210 429.7 240 450.3 270 454.8C300 459.3 330 447.7 360 437.8C390 428 420 420 450 418.5C480 417 510 422 540 425.8C570 429.7 600 432.3 630 427.7C660 423 690 411 720 419.2C750 427.3 780 455.7 810 475.8C840 496 870 508 885 514L900 520L900 601L885 601C870 601 840 601 810 601C780 601 750 601 720 601C690 601 660 601 630 601C600 601 570 601 540 601C510 601 480 601 450 601C420 601 390 601 360 601C330 601 300 601 270 601C240 601 210 601 180 601C150 601 120 601 90 601C60 601 30 601 15 601L0 601Z" fill="#d23467"></path><path d="M0 545L15 542C30 539 60 533 90 527.5C120 522 150 517 180 524.3C210 531.7 240 551.3 270 559.7C300 568 330 565 360 560.8C390 556.7 420 551.3 450 546.8C480 542.3 510 538.7 540 527.8C570 517 600 499 630 488.7C660 478.3 690 475.7 720 475C750 474.3 780 475.7 810 484.7C840 493.7 870 510.3 885 518.7L900 527L900 601L885 601C870 601 840 601 810 601C780 601 750 601 720 601C690 601 660 601 630 601C600 601 570 601 540 601C510 601 480 601 450 601C420 601 390 601 360 601C330 601 300 601 270 601C240 601 210 601 180 601C150 601 120 601 90 601C60 601 30 601 15 601L0 601Z" fill="#c62368"></path></svg>